<svg width="20" height="20" viewBox="0 0 20 20" fill="none" xmlns="http://www.w3.org/2000/svg">
<path d="M16.6667 4.44442H13.3333V3.33331C13.3333 2.74394 13.0992 2.17871 12.6825 1.76196C12.2657 1.34521 11.7005 1.11108 11.1111 1.11108H8.88889C8.29952 1.11108 7.73429 1.34521 7.31754 1.76196C6.90079 2.17871 6.66667 2.74394 6.66667 3.33331V4.44442H3.33333C2.44928 4.44442 1.60143 4.79561 0.976311 5.42073C0.35119 6.04585 0 6.8937 0 7.77775V15.5555C0 16.4396 0.35119 17.2874 0.976311 17.9126C1.60143 18.5377 2.44928 18.8889 3.33333 18.8889H16.6667C17.5507 18.8889 18.3986 18.5377 19.0237 17.9126C19.6488 17.2874 20 16.4396 20 15.5555V7.77775C20 6.8937 19.6488 6.04585 19.0237 5.42073C18.3986 4.79561 17.5507 4.44442 16.6667 4.44442ZM7.77778 3.33331C7.77812 3.03873 7.89529 2.75631 8.10359 2.54801C8.31189 2.33971 8.59431 2.22253 8.88889 2.2222H11.1111C11.4057 2.22253 11.6881 2.33971 11.8964 2.54801C12.1047 2.75631 12.2219 3.03873 12.2222 3.33331V4.44442H7.77778V3.33331Z" fill="#5FAE2C"/>
</svg>
