<svg width="14" height="18" viewBox="0 0 14 18" fill="none" xmlns="http://www.w3.org/2000/svg">
<path fill-rule="evenodd" clip-rule="evenodd" d="M0.333336 1.49984C0.333336 1.0396 0.706432 0.666504 1.16667 0.666504H12.8333C13.2936 0.666504 13.6667 1.0396 13.6667 1.49984V6.49984V14.8332C13.6667 16.2139 12.5474 17.3332 11.1667 17.3332H2.83334C1.45263 17.3332 0.333336 16.2139 0.333336 14.8332V6.49984V1.49984ZM12 2.33317V5.6665H2V2.33317H12ZM3.66667 9.83333C3.66667 9.3731 4.03976 9 4.5 9H5.33333C5.79357 9 6.16667 9.3731 6.16667 9.83333C6.16667 10.2936 5.79357 10.6667 5.33333 10.6667H4.5C4.03976 10.6667 3.66667 10.2936 3.66667 9.83333ZM7.83333 9.83333C7.83333 9.3731 8.20643 9 8.66667 9H9.5C9.96024 9 10.3333 9.3731 10.3333 9.83333C10.3333 10.2936 9.96024 10.6667 9.5 10.6667H8.66667C8.20643 10.6667 7.83333 10.2936 7.83333 9.83333ZM4.5 12.3333C4.03976 12.3333 3.66667 12.7064 3.66667 13.1667C3.66667 13.6269 4.03976 14 4.5 14H5.33333C5.79357 14 6.16667 13.6269 6.16667 13.1667C6.16667 12.7064 5.79357 12.3333 5.33333 12.3333H4.5ZM7.83333 13.1667C7.83333 12.7064 8.20643 12.3333 8.66667 12.3333H9.5C9.96024 12.3333 10.3333 12.7064 10.3333 13.1667C10.3333 13.6269 9.96024 14 9.5 14H8.66667C8.20643 14 7.83333 13.6269 7.83333 13.1667Z" fill="#5FAE2C"/>
</svg>
