<svg width="18" height="18" viewBox="0 0 18 18" fill="none" xmlns="http://www.w3.org/2000/svg">
<g clip-path="url(#clip0_453_5085)">
<path fill-rule="evenodd" clip-rule="evenodd" d="M8.6515 2.63873C8.76555 2.38805 8.73304 2.09504 8.56682 1.87547C8.4006 1.65589 8.12741 1.54507 7.85519 1.5868C4.25624 2.13848 1.5 5.24662 1.5 8.99988C1.5 13.142 4.85786 16.4999 9 16.4999C13.1421 16.4999 16.5 13.142 16.5 8.99988C16.5 8.92972 16.499 8.85977 16.4971 8.79004C16.4895 8.5145 16.3314 8.26532 16.0853 8.14112C15.8393 8.01692 15.5449 8.03771 15.3187 8.19527C14.5905 8.70254 13.7061 8.99988 12.75 8.99988C10.2647 8.99988 8.25 6.98516 8.25 4.49988C8.25 3.83461 8.39388 3.20499 8.6515 2.63873Z" fill="#F2D53E"/>
</g>
<defs>
<clipPath id="clip0_453_5085">
<rect width="18" height="18" fill="white"/>
</clipPath>
</defs>
</svg>
