<svg width="18" height="14" viewBox="0 0 18 14" fill="none" xmlns="http://www.w3.org/2000/svg">
<path fill-rule="evenodd" clip-rule="evenodd" d="M0.666668 1.16659C0.666668 0.706348 1.03976 0.333252 1.5 0.333252H7.33333C7.55435 0.333252 7.76631 0.421049 7.92259 0.57733L9.34518 1.99992H16.5C16.9602 1.99992 17.3333 2.37301 17.3333 2.83325V11.1666C17.3333 12.5473 16.214 13.6666 14.8333 13.6666H3.16667C1.78595 13.6666 0.666668 12.5473 0.666668 11.1666V1.16659ZM12.0893 6.75592C12.4147 6.43049 12.4147 5.90285 12.0893 5.57741C11.7638 5.25197 11.2362 5.25197 10.9107 5.57741L8.16667 8.32149L7.08926 7.24408C6.76382 6.91864 6.23618 6.91864 5.91074 7.24408C5.58531 7.56951 5.58531 8.09715 5.91074 8.42259L7.57741 10.0893C7.90285 10.4147 8.43049 10.4147 8.75592 10.0893L12.0893 6.75592Z" fill="#5FAE2C"/>
</svg>
