<svg width="20" height="20" viewBox="0 0 20 20" fill="none" xmlns="http://www.w3.org/2000/svg">
<g clip-path="url(#clip0_453_5094)">
<path fill-rule="evenodd" clip-rule="evenodd" d="M12.4987 2.5C12.9589 2.5 13.332 2.8731 13.332 3.33333C13.332 3.79357 12.9589 4.16667 12.4987 4.16667H4.9987V15C4.9987 15.4602 5.37179 15.8333 5.83203 15.8333H12.4987C12.9589 15.8333 13.332 16.2064 13.332 16.6667C13.332 17.1269 12.9589 17.5 12.4987 17.5H5.83203C4.45132 17.5 3.33203 16.3807 3.33203 15V3.33333C3.33203 2.8731 3.70513 2.5 4.16536 2.5H12.4987ZM13.9213 6.91074C13.683 6.67241 13.3245 6.60112 13.0131 6.7301C12.7017 6.85908 12.4987 7.16295 12.4987 7.5L12.4987 9.16667H7.4987C7.03846 9.16667 6.66536 9.53976 6.66536 10C6.66536 10.4602 7.03846 10.8333 7.4987 10.8333H12.4987V12.5C12.4987 12.8371 12.7017 13.1409 13.0131 13.2699C13.3245 13.3989 13.683 13.3276 13.9213 13.0893L16.4213 10.5893C16.7467 10.2638 16.7467 9.73618 16.4213 9.41074L13.9213 6.91074Z" fill="#D32E12"/>
</g>
<defs>
<clipPath id="clip0_453_5094">
<rect width="20" height="20" fill="white"/>
</clipPath>
</defs>
</svg>
