<svg width="20" height="20" viewBox="0 0 20 20" fill="none" xmlns="http://www.w3.org/2000/svg">
<g clip-path="url(#clip0_453_5069)">
<path fill-rule="evenodd" clip-rule="evenodd" d="M1.66602 9.99984C1.66602 5.39746 5.39698 1.6665 9.99935 1.6665C14.6017 1.6665 18.3327 5.39746 18.3327 9.99984C18.3327 14.6022 14.6017 18.3332 9.99935 18.3332C5.39698 18.3332 1.66602 14.6022 1.66602 9.99984ZM8.74967 6.66658C8.74967 5.97623 9.30932 5.41659 9.99967 5.41659H10.008C10.6984 5.41659 11.258 5.97623 11.258 6.66658V6.67492C11.258 7.36527 10.6984 7.92492 10.008 7.92492H9.99967C9.30932 7.92492 8.74967 7.36527 8.74967 6.67492V6.66658ZM9.99967 9.16659C10.4599 9.16659 10.833 9.53968 10.833 9.99992V13.3333C10.833 13.7935 10.4599 14.1666 9.99967 14.1666C9.53944 14.1666 9.16634 13.7935 9.16634 13.3333V9.99992C9.16634 9.53968 9.53944 9.16659 9.99967 9.16659Z" fill="#5FAE2C"/>
</g>
<defs>
<clipPath id="clip0_453_5069">
<rect width="20" height="20" fill="white"/>
</clipPath>
</defs>
</svg>
