<svg width="22" height="22" viewBox="0 0 22 22" fill="none" xmlns="http://www.w3.org/2000/svg">
<circle cx="11" cy="11" r="11" fill="#5FAE2C"/>
<g clip-path="url(#clip0_453_5082)">
<path fill-rule="evenodd" clip-rule="evenodd" d="M11 3.5C11.4142 3.5 11.75 3.83579 11.75 4.25V5C11.75 5.41421 11.4142 5.75 11 5.75C10.5858 5.75 10.25 5.41421 10.25 5V4.25C10.25 3.83579 10.5858 3.5 11 3.5ZM3.5 11C3.5 10.5858 3.83579 10.25 4.25 10.25H5C5.41421 10.25 5.75 10.5858 5.75 11C5.75 11.4142 5.41421 11.75 5 11.75H4.25C3.83579 11.75 3.5 11.4142 3.5 11ZM16.25 11C16.25 10.5858 16.5858 10.25 17 10.25H17.75C18.1642 10.25 18.5 10.5858 18.5 11C18.5 11.4142 18.1642 11.75 17.75 11.75H17C16.5858 11.75 16.25 11.4142 16.25 11ZM11.75 17C11.75 16.5858 11.4142 16.25 11 16.25C10.5858 16.25 10.25 16.5858 10.25 17V17.75C10.25 18.1642 10.5858 18.5 11 18.5C11.4142 18.5 11.75 18.1642 11.75 17.75V17ZM15.7725 14.7122C15.4796 14.4193 15.0048 14.4193 14.7119 14.7122C14.419 15.0051 14.419 15.48 14.7119 15.7729L15.2422 16.3032C15.5351 16.5961 16.01 16.5961 16.3028 16.3032C16.5957 16.0103 16.5957 15.5354 16.3028 15.2426L15.7725 14.7122ZM5.69721 5.69666C5.9901 5.40377 6.46498 5.40377 6.75787 5.69666L7.2882 6.22699C7.58109 6.51988 7.58109 6.99476 7.2882 7.28765C6.99531 7.58054 6.52043 7.58054 6.22754 7.28765L5.69721 6.75732C5.40432 6.46443 5.40432 5.98955 5.69721 5.69666ZM7.28814 15.7729C7.58104 15.48 7.58104 15.0051 7.28814 14.7122C6.99525 14.4193 6.52038 14.4193 6.22748 14.7122L5.69715 15.2426C5.40426 15.5354 5.40426 16.0103 5.69715 16.3032C5.99005 16.5961 6.46492 16.5961 6.75781 16.3032L7.28814 15.7729ZM16.3028 5.69666C16.5957 5.98955 16.5957 6.46443 16.3028 6.75732L15.7725 7.28765C15.4796 7.58054 15.0047 7.58054 14.7118 7.28765C14.4189 6.99476 14.4189 6.51988 14.7118 6.22699L15.2421 5.69666C15.535 5.40377 16.0099 5.40377 16.3028 5.69666ZM7.25 11C7.25 8.92893 8.92893 7.25 11 7.25C13.0711 7.25 14.75 8.92893 14.75 11C14.75 13.0711 13.0711 14.75 11 14.75C8.92893 14.75 7.25 13.0711 7.25 11Z" fill="white"/>
</g>
<defs>
<clipPath id="clip0_453_5082">
<rect width="18" height="18" fill="white" transform="translate(2 2)"/>
</clipPath>
</defs>
</svg>
