<svg width="24" height="24" viewBox="0 0 24 24" fill="none" xmlns="http://www.w3.org/2000/svg">
<path fill-rule="evenodd" clip-rule="evenodd" d="M17.1667 0.375C20.6135 0.375 23.9167 3.29201 22.9474 7.09972C20.9711 14.8627 14.8627 20.9711 7.09972 22.9474C3.29201 23.9167 0.375 20.6135 0.375 17.1667V15.875C0.375 14.4195 1.53897 13.3623 2.82887 13.2344C3.90839 13.1274 4.94358 12.8729 5.91468 12.4914C6.39289 12.3036 6.93695 12.417 7.30025 12.7803L8.59462 14.0747C10.8886 12.7908 12.7908 10.8887 14.0747 8.59463L12.7803 7.30026C12.417 6.93697 12.3036 6.39291 12.4914 5.9147C12.8728 4.94359 13.1274 3.9084 13.2344 2.82888C13.3623 1.53896 14.4195 0.375 15.875 0.375H17.1667Z" fill="white"/>
</svg>
